<svg xmlns="http://www.w3.org/2000/svg" width="19" height="20" fill="none">
  <path fill="#fff" fill-rule="evenodd" d="M4.7 10a4.8 4.8 0 1 1 9.6 0 4.8 4.8 0 0 1-9.6 0Zm8 0a3.1 3.1 0 1 0-6.3 0 3.1 3.1 0 0 0 6.2 0Z" clip-rule="evenodd"/>
  <path fill="#fff" d="M13.4 5a1.1 1.1 0 1 1 2.2 0 1.1 1.1 0 0 1-2.2 0Z"/>
  <path fill="#fff" fill-rule="evenodd" d="M5.7.7h7.6c1 0 1.7.2 2.3.5.6.2 1.1.5 1.7 1 .5.6.8 1 1 1.7.3.6.4 1.3.5 2.3a66.8 66.8 0 0 1-.5 10c-.2.5-.5 1-1 1.6-.6.5-1 .8-1.7 1-.6.3-1.3.4-2.3.5a66.2 66.2 0 0 1-10-.5c-.5-.2-1-.5-1.6-1-.5-.6-.8-1-1-1.7-.3-.6-.4-1.3-.5-2.3a66.4 66.4 0 0 1 .5-10c.2-.5.5-1 1-1.6.6-.5 1-.8 1.7-1C4 .9 4.7.8 5.7.7Zm3.5 1.6h-.5a51.8 51.8 0 0 0-4.7.4c-.4.2-.8.4-1 .7-.4.3-.6.7-.8 1-.1.4-.3 1-.3 1.8a65.2 65.2 0 0 0 .3 9.3l.7 1c.3.4.7.6 1.1.8.3.1.8.3 1.7.3a64.8 64.8 0 0 0 9.3-.3c.4-.2.8-.4 1-.7l.8-1.1c.1-.3.3-.8.3-1.7a65 65 0 0 0-.3-9.3c-.2-.4-.4-.8-.7-1-.3-.4-.7-.6-1-.8-.4-.1-1-.3-1.8-.3H9.2Z" clip-rule="evenodd"/>
</svg>