<svg width="136" height="17" viewBox="0 0 136 17" fill="none" xmlns="http://www.w3.org/2000/svg">
<path d="M14.5885 0.730748V16.192H10.9073V9.8529H3.68122V16.192H0V0.730748H3.68122V6.82691H10.9073V0.730748H14.5885Z" fill="white"/>
<path d="M31.8043 13.3206V16.192H19.4881V0.730748H31.5089V3.60213H23.1466V6.95943H30.5318V9.74246H23.1466V13.3206H31.8043Z" fill="white"/>
<path d="M35.8695 0.730748H39.5507V13.2765H47.5267V16.192H35.8695V0.730748Z" fill="white"/>
<path d="M57.605 0.730748C59.0139 0.730748 60.2333 0.958986 61.2635 1.41546C62.3088 1.87194 63.1117 2.51984 63.6722 3.35916C64.2327 4.19849 64.513 5.19243 64.513 6.34098C64.513 7.47481 64.2327 8.46875 63.6722 9.3228C63.1117 10.1621 62.3088 10.81 61.2635 11.2665C60.2333 11.7083 59.0139 11.9291 57.605 11.9291H54.401V16.192H50.7197V0.730748H57.605ZM57.4005 9.01357C58.5064 9.01357 59.3471 8.78534 59.9228 8.32886C60.4985 7.85766 60.7863 7.19503 60.7863 6.34098C60.7863 5.47221 60.4985 4.80958 59.9228 4.3531C59.3471 3.8819 58.5064 3.6463 57.4005 3.6463H54.401V9.01357H57.4005Z" fill="white"/>
<path d="M68.2773 0.730748H75.5034C77.2303 0.730748 78.7528 1.0547 80.0708 1.7026C81.4039 2.33578 82.4341 3.234 83.1612 4.39728C83.9035 5.56056 84.2747 6.91526 84.2747 8.46139C84.2747 10.0075 83.9035 11.3622 83.1612 12.5255C82.4341 13.6888 81.4039 14.5944 80.0708 15.2423C78.7528 15.8754 77.2303 16.192 75.5034 16.192H68.2773V0.730748ZM75.3216 13.2544C76.9122 13.2544 78.1772 12.8274 79.1164 11.9733C80.0708 11.1045 80.548 9.93389 80.548 8.46139C80.548 6.98888 80.0708 5.82561 79.1164 4.97156C78.1772 4.10278 76.9122 3.66839 75.3216 3.66839H71.9585V13.2544H75.3216Z" fill="white"/>
<path d="M100.503 13.3206V16.192H88.187V0.730748H100.208V3.60213H91.8455V6.95943H99.2307V9.74246H91.8455V13.3206H100.503Z" fill="white"/>
<path d="M109.795 16.4571C108.537 16.4571 107.318 16.2951 106.136 15.9711C104.97 15.6325 104.031 15.1981 103.319 14.668L104.568 11.9733C105.25 12.4592 106.061 12.8494 107 13.1439C107.939 13.4384 108.878 13.5857 109.818 13.5857C110.863 13.5857 111.635 13.4384 112.135 13.1439C112.635 12.8347 112.885 12.4298 112.885 11.9291C112.885 11.561 112.734 11.2591 112.431 11.0235C112.143 10.7732 111.764 10.5744 111.295 10.4272C110.84 10.2799 110.219 10.118 109.431 9.94125C108.219 9.66148 107.227 9.3817 106.454 9.10192C105.682 8.82215 105.015 8.37304 104.455 7.75458C103.909 7.13613 103.637 6.31153 103.637 5.28078C103.637 4.38255 103.887 3.57268 104.387 2.85115C104.887 2.1149 105.636 1.53326 106.636 1.10624C107.651 0.679211 108.886 0.465698 110.34 0.465698C111.355 0.465698 112.347 0.583498 113.317 0.819098C114.287 1.0547 115.135 1.39337 115.862 1.83512L114.726 4.55189C113.256 3.74202 111.787 3.33708 110.317 3.33708C109.287 3.33708 108.522 3.49905 108.022 3.823C107.538 4.14695 107.295 4.57398 107.295 5.10408C107.295 5.63418 107.576 6.03176 108.136 6.29681C108.712 6.54713 109.583 6.79746 110.749 7.04778C111.961 7.32756 112.953 7.60733 113.726 7.88711C114.499 8.16688 115.158 8.60864 115.703 9.21236C116.263 9.81609 116.544 10.6333 116.544 11.6641C116.544 12.5476 116.286 13.3575 115.771 14.0937C115.271 14.8152 114.514 15.3895 113.499 15.8165C112.484 16.2436 111.249 16.4571 109.795 16.4571Z" fill="white"/>
<path d="M125.99 10.118L123.854 12.2825V16.192H120.195V0.730748H123.854V7.95337L130.898 0.730748H134.988L128.399 7.62206L135.375 16.192H131.08L125.99 10.118Z" fill="white"/>
</svg>
