<svg xmlns="http://www.w3.org/2000/svg" width="21" height="22" fill="none">
    <path fill="#fff"
        d="M20.3 5.6c-.5-2-2.7-4.2-4.8-4.7-3.3-.6-6.7-.6-10 0-2 .5-4.3 2.7-4.8 4.7a20 20 0 0 0 0 8.5c.5 2 2.5 4 4.5 4.6V21c0 .8 1 1.2 1.6.6L9 19.2a26.3 26.3 0 0 0 6.5-.4c2-.5 4.3-2.6 4.8-4.7a20 20 0 0 0 0-8.5Zm-1.8 8.1c-.3 1.3-2 3-3.3 3.3a24.6 24.6 0 0 1-5.5.4l-1.6 1.8L6.3 21c-.1.1-.3 0-.3-.2v-3.7l-.2-.1c-1.3-.3-3-2-3.3-3.3a18 18 0 0 1 0-7.7c.3-1.3 2-3 3.3-3.3 3.1-.5 6.3-.5 9.4 0 1.3.3 3 2 3.3 3.3a18 18 0 0 1 0 7.7Z" />
    <path fill="#fff"
        d="m13.4 15.4-.6-.1c-1.9-.8-3.6-1.9-5-3.4-.8-1-1.4-2-2-3l-.6-1.6c-.2-.5.1-1 .4-1.3.3-.4.6-.6 1-.8.3-.1.6 0 .9.2l1.3 1.8c.2.4.1 1-.3 1.2l-.3.2-.2.2v.6a4.8 4.8 0 0 0 2.7 3l.7.2c.4 0 .5-.6.8-.8.3-.2.7-.2 1 0l1 .6.8.6c.3.3.3.6.2.9-.3.6-.7 1-1.2 1.4l-.6.1c-.2 0 .2 0 0 0ZM10.5 4.5a5 5 0 0 1 5 4.3l.1 1.2c0 .2 0 .4-.3.4-.2 0-.3-.2-.3-.3V9a4.5 4.5 0 0 0-3.6-3.8h-.9c-.2 0-.4 0-.4-.3 0-.2 0-.4.3-.4h.1c2.5.1 0 0 0 0Z" />
    <path fill="#fff"
        d="M14.3 9.5v.2c-.1.2-.5.2-.6 0v-.3c0-.5-.1-1-.4-1.5a2.8 2.8 0 0 0-2.1-1.4h-.4c-.2 0-.3-.2-.3-.4 0-.1.1-.2.3-.2.6 0 1.1.1 1.6.4 1 .6 1.7 1.4 1.8 2.6V9.5s0-.2 0 0Z" />
    <path fill="#fff"
        d="M12.7 9.4c-.2 0-.3 0-.3-.3v-.4l-.5-.6a1 1 0 0 0-.3-.2H11l-.2-.4c0-.1.2-.3.3-.2 1 0 1.7.5 1.8 1.7v.2c0 .2-.2.2-.3.2-.2 0 .1 0 0 0Z" />
</svg>